<svg width="416" height="304" viewBox="0 0 416 304" fill="none" xmlns="http://www.w3.org/2000/svg">
<path d="M285.449 291.176C180.976 249.564 203.995 249.564 123.427 291.176C86.2418 319.631 37.5467 279.666 38.4321 279.666C-35.0532 217.691 18.9541 118.53 21.6102 118.53C88.0126 -20.4726 221.703 0.776193 224.359 1.66156C348.31 13.1713 393.464 121.186 393.464 118.53C451.012 226.544 380.183 284.978 380.183 283.208C348.31 323.049 283.678 291.176 285.449 291.176Z" fill="white"/>
<circle cx="291.647" cy="109.676" r="23.9049" fill="black"/>
<circle cx="291.647" cy="198.213" r="23.9049" fill="black"/>
<circle cx="243.837" cy="157.486" r="23.9049" fill="black"/>
<circle cx="339.457" cy="157.486" r="23.9049" fill="black"/>
<rect x="101.293" y="115.874" width="30.1024" height="97.3902" fill="black"/>
<rect x="67.6494" y="179.62" width="30.1024" height="97.3902" transform="rotate(-90 67.6494 179.62)" fill="black"/>
</svg>
